# xmcd
#
# Track frame offsets: 
#        150
#        20924
#        44412
#        79183
#        99588
#        113521
#        143678
#        159880
#        187623
#        207401
#        225039
#        241235
#
# Disc length: 3505 seconds
#
# Revision: 0
# Processed by: cddbd v1.5.2PL0 Copyright (c) Steve Scherf et al.
# Submitted via: ExactAudioCopy v1.0b1
#
DISCID=870daf0c
DTITLE=blues.the-butcher-590213 and Monsieur Kamayatsu - ROCKIN' with MO
DTITLE=NSIEUR
DYEAR=2009
DGENRE=Blues
TTITLE0=Be-Bop-A-Lula
TTITLE1=Walking The Dog
TTITLE2=(I Can't Get No) Satisfaction
TTITLE3=Dimples
TTITLE4=High Time Baby
TTITLE5=Rock Me Baby
TTITLE6=Route 66
TTITLE7=Hoochie Coochie Man
TTITLE8=You Got Me Dizzy
TTITLE9=Te-Ni-Nee-Ni-Nu
TTITLE10=Boom Boom
TTITLE11=Kansas City
EXTD=
EXTT0=
EXTT1=
EXTT2=
EXTT3=
EXTT4=
EXTT5=
EXTT6=
EXTT7=
EXTT8=
EXTT9=
EXTT10=
EXTT11=
PLAYORDER=
